<svg xmlns="http://www.w3.org/2000/svg" viewBox="0 0 256 256">
  <rect width="256" height="256" fill="#1a1a1a"/>
  <circle cx="128" cy="80" r="8" fill="#60B5FF"/>
  <circle cx="90" cy="120" r="8" fill="#60B5FF"/>
  <circle cx="166" cy="120" r="8" fill="#60B5FF"/>
  <circle cx="70" cy="170" r="8" fill="#60B5FF"/>
  <circle cx="128" cy="170" r="8" fill="#60B5FF"/>
  <circle cx="186" cy="170" r="8" fill="#60B5FF"/>
  <line x1="128" y1="80" x2="90" y2="120" stroke="#60B5FF" stroke-width="3"/>
  <line x1="128" y1="80" x2="166" y2="120" stroke="#60B5FF" stroke-width="3"/>
  <line x1="90" y1="120" x2="70" y2="170" stroke="#60B5FF" stroke-width="3"/>
  <line x1="90" y1="120" x2="128" y2="170" stroke="#60B5FF" stroke-width="3"/>
  <line x1="166" y1="120" x2="128" y2="170" stroke="#60B5FF" stroke-width="3"/>
  <line x1="166" y1="120" x2="186" y2="170" stroke="#60B5FF" stroke-width="3"/>
  <path d="M 128 50 Q 100 50 85 70 Q 70 90 70 120 Q 70 150 85 170 Q 100 190 128 190 Q 156 190 171 170 Q 186 150 186 120 Q 186 90 171 70 Q 156 50 128 50" fill="none" stroke="#60B5FF" stroke-width="2.5"/>
  <rect x="115" y="35" width="26" height="12" rx="2" fill="#60B5FF"/>
  <rect x="115" y="209" width="26" height="12" rx="2" fill="#60B5FF"/>
  <rect x="35" y="115" width="12" height="26" rx="2" fill="#60B5FF"/>
  <rect x="209" y="115" width="12" height="26" rx="2" fill="#60B5FF"/>
</svg>